<?xml version="1.0" encoding="UTF-8" standalone="no"?>
<!DOCTYPE svg PUBLIC "-//W3C//DTD SVG 1.1//EN" "http://www.w3.org/Graphics/SVG/1.1/DTD/svg11.dtd">
<svg width="100%" height="100%" viewBox="0 0 1537 1536" version="1.1" xmlns="http://www.w3.org/2000/svg" xmlns:xlink="http://www.w3.org/1999/xlink" xml:space="preserve" xmlns:serif="http://www.serif.com/" style="fill-rule:evenodd;clip-rule:evenodd;stroke-linejoin:round;stroke-miterlimit:2;">
    <g transform="matrix(1,0,0,1,-1685,0)">
        <g id="minus" transform="matrix(0.625684,0,0,0.665963,1685.84,0)">
            <rect x="0" y="0" width="2454.91" height="2305.81" style="fill:none;"/>
            <clipPath id="_clip1">
                <rect x="0" y="0" width="2454.91" height="2305.81"/>
            </clipPath>
            <g clip-path="url(#_clip1)">
                <g transform="matrix(1.59825,0,0,1.50158,-2694.39,0)">
                    <path d="M2453.63,-0C2877.38,-0 3221.42,344.036 3221.42,767.791C3221.42,1191.55 2877.38,1535.58 2453.63,1535.58C2029.87,1535.58 1685.84,1191.55 1685.84,767.791C1685.84,344.036 2029.87,-0 2453.63,-0ZM2839.28,663.877L2068.39,663.877L2068.39,871.706L2839.28,871.706L2839.28,663.877Z"/>
                </g>
            </g>
        </g>
    </g>
</svg>
