<?xml version="1.0" encoding="UTF-8" standalone="no"?><!DOCTYPE svg PUBLIC "-//W3C//DTD SVG 1.1//EN" "http://www.w3.org/Graphics/SVG/1.1/DTD/svg11.dtd"><svg width="100%" height="100%" viewBox="0 0 1536 1536" version="1.1" xmlns="http://www.w3.org/2000/svg" xmlns:xlink="http://www.w3.org/1999/xlink" xml:space="preserve" xmlns:serif="http://www.serif.com/" style="fill-rule:evenodd;clip-rule:evenodd;stroke-linejoin:round;stroke-miterlimit:2;"><rect id="reset" x="0" y="0" width="1536" height="1535.58" style="fill:none;"/><clipPath id="_clip1"><rect x="0" y="0" width="1536" height="1535.58"/></clipPath><g clip-path="url(#_clip1)"><path d="M768,0c423.871,0 768,344.129 768,768c0,423.871 -344.129,768 -768,768c-423.871,0 -768,-344.129 -768,-768c0,-423.871 344.129,-768 768,-768Zm-0.209,432.775l0,-191.438l-239.297,239.298l239.297,239.297l0,-191.438c158.415,0 287.157,128.742 287.157,287.157c-0,158.414 -128.742,287.156 -287.157,287.156c-158.415,0 -287.156,-128.742 -287.156,-287.156l-95.719,-0c-0,211.538 171.336,382.875 382.875,382.875c211.539,0 382.876,-171.337 382.876,-382.875c-0,-211.539 -171.337,-382.876 -382.876,-382.876Z"/></g></svg>